<svg width="97" height="33" viewBox="0 0 97 33" fill="none" xmlns="http://www.w3.org/2000/svg">
<path d="M10.048 11.976C13.184 11.976 14.784 14.504 14.784 17.448V25H17.952V17.064C17.952 12.52 15.168 8.936 10.048 8.936C4.992 8.936 2.272 12.52 2.272 17.096V25H5.44V17.416C5.44 14.504 6.976 11.976 10.048 11.976ZM24.6988 6.216C25.8508 6.216 26.7468 5.288 26.7468 4.136C26.7468 2.984 25.8508 2.024 24.6988 2.024C23.5468 2.024 22.6188 2.984 22.6188 4.136C22.6188 5.288 23.5468 6.216 24.6988 6.216ZM23.1308 9.32V25H26.2988V9.32H23.1308ZM47.1715 32.2V17.128C47.1715 12.456 43.5555 8.936 38.8195 8.936C34.0515 8.936 30.4675 12.648 30.4675 17.128C30.4675 21.864 33.9235 25.384 38.6595 25.384C40.7715 25.384 42.7235 24.456 44.0035 23.016V32.2H47.1715ZM38.8195 22.408C35.9075 22.408 33.6355 20.008 33.6355 17.16C33.6355 14.28 35.9075 11.944 38.8195 11.944C41.7635 11.944 44.0035 14.28 44.0035 17.16C44.0035 20.008 41.7635 22.408 38.8195 22.408ZM59.1975 22.312C56.3175 22.312 54.7495 19.784 54.7495 16.904V9.32H51.5815V17.224C51.5815 21.768 54.3335 25.384 59.1975 25.384C64.1255 25.384 66.8775 21.8 66.8775 17.256V9.32H63.7095V16.872C63.7095 19.784 62.1095 22.312 59.1975 22.312ZM78.6313 25.352C81.7033 25.352 84.2313 23.912 85.6073 21.224L83.1753 19.976C82.2473 21.704 80.5193 22.536 78.5993 22.536C75.7833 22.536 73.7352 20.648 73.3833 17.96H85.9272V16.68C85.9272 12.296 82.9833 8.872 78.2473 8.872C73.5433 8.872 70.3113 12.552 70.3113 17.064C70.3113 21.896 73.8633 25.352 78.6313 25.352ZM73.5113 15.912C73.8313 13.576 75.5593 11.72 78.2153 11.72C80.8073 11.72 82.6313 13.416 82.7593 15.912H73.5113ZM91.765 25.288C92.917 25.288 93.845 24.36 93.845 23.208C93.845 22.056 92.917 21.16 91.765 21.16C90.613 21.16 89.685 22.056 89.685 23.208C89.685 24.36 90.613 25.288 91.765 25.288Z" fill="white"/>
</svg>
